<?xml version="1.0" standalone="no"?>
<!DOCTYPE svg PUBLIC "-//W3C//DTD SVG 20010904//EN"
 "http://www.w3.org/TR/2001/REC-SVG-20010904/DTD/svg10.dtd">
<svg version="1.0" xmlns="http://www.w3.org/2000/svg"
 width="698.000000pt" height="698.000000pt" viewBox="0 0 698.000000 698.000000"
 preserveAspectRatio="xMidYMid meet">
<metadata>
Created by potrace 1.14, written by Peter Selinger 2001-2017
</metadata>
<g transform="translate(0.000000,698.000000) scale(0.100000,-0.100000)"
fill="#000000" stroke="none">
<path d="M3337 6974 c-1 -1 -56 -4 -122 -8 -146 -8 -183 -12 -305 -32 -217
-34 -555 -132 -728 -210 -29 -13 -54 -24 -56 -24 -11 0 -295 -138 -343 -166
-60 -35 -42 -41 120 -41 266 1 379 -19 680 -117 243 -80 414 -151 692 -288
110 -54 209 -98 220 -98 11 0 29 6 40 14 11 7 22 14 25 14 13 1 65 25 195 87
250 120 396 180 615 255 108 36 333 95 400 105 25 3 52 8 60 10 60 16 300 23
424 12 35 -3 37 -2 20 10 -47 35 -219 126 -319 169 -60 25 -126 53 -144 62
-58 25 -339 119 -411 137 -8 2 -58 15 -110 28 -52 14 -111 28 -130 31 -19 3
-46 8 -59 10 -13 3 -49 8 -80 11 -31 4 -67 8 -79 10 -74 12 -593 28 -605 19z"/>
<path d="M5814 6000 c-280 -55 -665 -299 -1084 -686 -152 -141 -188 -174 -222
-204 -21 -17 -38 -36 -38 -42 0 -9 36 -58 86 -118 12 -14 61 -74 108 -135 47
-60 89 -114 94 -120 143 -179 485 -677 671 -980 51 -82 97 -157 102 -165 31
-50 199 -343 199 -346 0 -3 21 -41 46 -85 74 -131 237 -463 304 -618 53 -125
140 -369 155 -434 61 -276 78 -465 52 -594 -7 -40 -12 -75 -9 -78 18 -18 213
296 339 545 93 185 138 297 207 520 78 254 114 422 133 620 10 107 10 669 0
775 -4 44 -10 105 -13 135 -13 143 -71 389 -138 590 -164 496 -441 966 -758
1287 -124 126 -161 147 -234 133z"/>
<path d="M1069 5972 c-87 -56 -306 -307 -432 -497 -26 -38 -50 -74 -55 -80
-40 -51 -202 -360 -284 -545 -40 -90 -119 -323 -159 -470 -15 -53 -13 -46 -22
-90 -4 -19 -9 -46 -12 -60 -14 -62 -35 -186 -40 -233 -3 -29 -8 -59 -10 -67
-5 -17 -15 -89 -20 -135 -2 -16 -7 -61 -11 -100 -15 -128 -9 -387 11 -505 2
-14 7 -50 10 -80 3 -30 8 -62 10 -70 3 -8 9 -44 14 -80 6 -36 13 -78 16 -95
104 -536 258 -916 545 -1345 76 -114 123 -169 106 -125 -28 75 -36 136 -32
255 3 69 8 136 11 150 3 14 8 43 11 65 7 47 69 292 89 350 26 77 104 281 125
327 11 26 22 51 22 55 3 14 251 506 283 562 18 31 79 137 135 236 57 99 107
182 110 185 4 3 10 12 13 20 7 15 32 57 92 153 55 88 310 471 385 577 73 104
325 442 360 484 88 105 200 247 200 255 0 5 -12 19 -26 30 -14 11 -65 56 -112
99 -275 249 -524 458 -622 521 -14 8 -27 18 -30 21 -3 3 -23 17 -45 30 -22 13
-42 26 -45 29 -25 28 -246 133 -357 170 -118 40 -174 41 -234 3z"/>
<path d="M3414 4101 c-76 -54 -264 -213 -411 -348 -519 -477 -948 -941 -1283
-1388 -283 -378 -436 -641 -546 -940 -15 -40 -24 -78 -40 -160 -7 -38 -11
-109 -9 -157 6 -165 79 -263 325 -438 308 -219 631 -384 975 -498 119 -39 333
-95 409 -107 21 -4 48 -9 60 -11 11 -2 53 -9 91 -15 39 -5 84 -12 100 -15 149
-22 620 -22 780 1 17 2 68 9 115 15 106 13 155 21 315 54 31 7 133 33 195 50
63 17 231 76 281 99 19 9 68 30 109 47 369 158 818 451 939 613 49 66 64 113
67 210 7 278 -199 706 -596 1242 -249 335 -472 585 -946 1059 -452 452 -773
736 -835 736 -14 0 -55 -21 -95 -49z"/>
</g>
</svg>
